<?xml version="1.0" encoding="utf-8"?>
<!-- Generator: Adobe Illustrator 17.0.0, SVG Export Plug-In . SVG Version: 6.00 Build 0)  -->
<!DOCTYPE svg PUBLIC "-//W3C//DTD SVG 1.1//EN" "http://www.w3.org/Graphics/SVG/1.1/DTD/svg11.dtd">
<svg version="1.1" id="Layer_1" xmlns="http://www.w3.org/2000/svg" xmlns:xlink="http://www.w3.org/1999/xlink" x="0px" y="0px"
	 width="200px" height="90px" viewBox="0 0 200 90" enable-background="new 0 0 200 90" xml:space="preserve">
<g>
	<path fill="#FFFFFF" d="M71.117,88.962c-22.706,0-45.411,0-68.117,0C3,60.214,3,31.467,3,2.719c22.706,0,45.411,0,68.117,0
		C71.117,31.467,71.117,60.214,71.117,88.962z M8.088,46.032c0,4.138-0.017,8.276,0.007,12.414c0.013,2.308,0.344,4.569,0.999,6.796
		c0.484,1.646,1.065,3.244,1.928,4.716c0.811,1.383,1.632,2.785,2.64,4.022c1.082,1.327,2.308,2.566,3.617,3.671
		c1.308,1.105,2.758,2.057,4.215,2.963c1.055,0.656,2.203,1.181,3.349,1.67c1.237,0.527,2.491,1.063,3.79,1.382
		c1.84,0.453,3.719,0.79,5.599,1.036c2.401,0.313,4.813,0.268,7.207-0.172c0.69-0.127,1.397-0.164,2.081-0.315
		c1.677-0.37,3.351-0.761,4.943-1.43c0.48-0.202,0.974-0.374,1.446-0.594c0.921-0.429,1.861-0.83,2.739-1.336
		c1.058-0.611,2.107-1.258,3.074-2.002c1.164-0.895,2.28-1.863,3.338-2.88c1.191-1.146,2.253-2.418,3.115-3.837
		c0.604-0.995,1.185-2.005,1.74-3.028c0.286-0.529,0.527-1.09,0.727-1.657c0.369-1.047,0.705-2.106,1.028-3.168
		c0.12-0.393,0.172-0.808,0.244-1.214c0.114-0.649,0.235-1.297,0.322-1.949c0.058-0.436,0.036-0.883,0.1-1.318
		c0.082-0.564-0.02-0.713-0.576-0.712c-1.793,0.004-3.586,0.007-5.379,0.009c-0.497,0.001-0.993-0.003-1.49-0.003
		c-0.274,0-0.445,0.129-0.475,0.41c-0.092,0.86-0.167,1.723-0.277,2.581c-0.049,0.38-0.144,0.758-0.252,1.126
		c-0.361,1.228-0.827,2.41-1.421,3.553c-0.632,1.218-1.402,2.33-2.265,3.383c-0.99,1.207-2.146,2.242-3.379,3.201
		c-1.677,1.305-3.529,2.301-5.501,3.041c-1.281,0.481-2.626,0.829-3.971,1.093c-1.143,0.224-2.328,0.343-3.492,0.327
		c-1.621-0.021-3.253-0.123-4.856-0.357c-1.159-0.169-2.288-0.579-3.413-0.936c-0.704-0.223-1.395-0.509-2.057-0.836
		c-0.787-0.389-1.569-0.806-2.296-1.296c-1.002-0.676-1.989-1.385-2.912-2.163c-1.408-1.188-2.573-2.608-3.558-4.161
		c-0.498-0.786-0.944-1.616-1.31-2.47c-0.345-0.804-0.515-1.682-0.833-2.499c-0.491-1.264-0.558-2.591-0.563-3.905
		c-0.03-8.924-0.027-17.848-0.016-26.773c0.002-1.61,0.098-3.204,0.615-4.77c0.349-1.058,0.686-2.105,1.177-3.111
		c0.668-1.37,1.508-2.612,2.475-3.783c2.372-2.873,5.377-4.847,8.8-6.229c0.534-0.216,1.078-0.426,1.637-0.553
		c1.287-0.292,2.572-0.568,3.888-0.749c2.485-0.343,4.922-0.121,7.351,0.334c0.967,0.181,1.917,0.492,2.845,0.828
		c1.043,0.377,2.083,0.788,3.069,1.293c1.634,0.837,3.119,1.908,4.468,3.159c1.063,0.985,2.054,2.037,2.844,3.257
		c0.477,0.737,0.935,1.489,1.345,2.264c0.365,0.69,0.683,1.41,0.966,2.138c0.513,1.319,0.665,2.721,0.873,4.109
		c0.028,0.187,0.059,0.381,0.038,0.566c-0.051,0.445,0.072,0.648,0.508,0.65c2.317,0.01,4.635,0.009,6.952,0.002
		c0.366-0.001,0.514-0.201,0.473-0.566c-0.034-0.3-0.064-0.6-0.091-0.901c-0.05-0.548-0.036-1.111-0.156-1.643
		c-0.298-1.313-0.631-2.619-1.001-3.913c-0.226-0.789-0.531-1.557-0.832-2.322c-0.181-0.459-0.392-0.912-0.641-1.337
		c-0.5-0.852-1-1.708-1.565-2.517c-0.653-0.935-1.324-1.865-2.078-2.718c-1.4-1.582-2.977-2.981-4.71-4.196
		c-1.331-0.933-2.704-1.797-4.193-2.458c-0.941-0.418-1.882-0.839-2.843-1.208c-0.857-0.329-1.726-0.647-2.616-0.865
		c-1.16-0.284-2.341-0.483-3.52-0.682c-0.935-0.158-1.876-0.32-2.821-0.381C36.091,5.91,32.916,6.2,29.791,6.969
		c-1.079,0.266-2.16,0.548-3.205,0.922c-1.084,0.389-2.149,0.851-3.18,1.367c-1.153,0.577-2.299,1.188-3.372,1.899
		c-1.122,0.743-2.214,1.556-3.207,2.462c-1.146,1.045-2.232,2.174-3.227,3.363c-0.789,0.943-1.414,2.025-2.09,3.059
		c-0.902,1.378-1.526,2.898-2.081,4.433c-0.532,1.473-0.888,3.013-1.085,4.567c-0.169,1.336-0.236,2.692-0.245,4.04
		C8.07,37.397,8.088,41.715,8.088,46.032z M53.618,46.703c0-2.29-0.001-4.58,0-6.869c0.002-2.276,0.006-4.552,0.01-6.827
		c0.001-0.478-0.188-0.653-0.656-0.619c-0.288,0.021-0.577,0.04-0.866,0.04c-4.276,0.003-8.552,0.002-12.829,0.001
		c-0.303,0-0.608,0.014-0.909-0.011c-0.671-0.056-0.754,0.024-0.753,0.714c0.002,1.903-0.002,3.807-0.01,5.71
		c-0.002,0.449,0.061,0.521,0.527,0.521c2.276-0.002,4.552-0.007,6.828-0.004c0.865,0.001,1.103,0.249,1.103,1.115
		c-0.001,5.959-0.012,11.918-0.001,17.877c0.004,2.026-0.694,3.768-2.045,5.244c-1.307,1.428-2.91,2.355-4.831,2.725
		c-1.035,0.199-2.055,0.351-3.112,0.152c-1.099-0.206-2.188-0.434-3.17-0.988c-0.987-0.557-1.892-1.229-2.622-2.111
		c-0.902-1.09-1.537-2.304-1.725-3.723c-0.069-0.522-0.192-0.645-0.71-0.637c-1.489,0.024-2.978,0.052-4.467,0.073
		c-0.703,0.01-1.407,0.019-2.11,0.006c-0.334-0.006-0.5,0.108-0.455,0.455c0.058,0.45,0.069,0.914,0.187,1.348
		c0.28,1.032,0.582,2.061,0.929,3.072c0.46,1.341,1.238,2.514,2.139,3.589c1.128,1.347,2.438,2.492,3.96,3.399
		c1.499,0.892,3.083,1.545,4.768,1.992c2.054,0.545,4.147,0.679,6.234,0.468c1.868-0.189,3.7-0.622,5.435-1.423
		c1.27-0.586,2.47-1.267,3.569-2.121c1.29-1.004,2.401-2.177,3.292-3.56c0.701-1.088,1.283-2.221,1.67-3.461
		c0.434-1.394,0.636-2.809,0.627-4.271C53.603,54.621,53.618,50.662,53.618,46.703z M32.811,35.617
		c0.037-0.657-0.184-1.475-0.647-2.271c-0.717-1.232-1.764-2.089-3.057-2.516c-2.347-0.776-4.603-0.516-6.559,1.13
		c-1.143,0.962-1.775,2.214-1.878,3.718c-0.058,0.846,0.182,1.6,0.528,2.381c0.592,1.34,1.59,2.272,2.864,2.771
		c2.13,0.834,4.291,0.808,6.295-0.487C31.973,39.296,32.857,37.83,32.811,35.617z"/>
	<path fill="#F7941E" stroke="#F7941E" stroke-width="3" stroke-miterlimit="10" d="M6.392,45.952c0-4.607-0.02-9.214,0.012-13.82
		c0.01-1.438,0.08-2.885,0.261-4.311c0.21-1.658,0.59-3.301,1.158-4.873c0.592-1.638,1.258-3.26,2.22-4.73
		c0.722-1.103,1.389-2.258,2.23-3.264c1.062-1.269,2.221-2.473,3.444-3.589c1.06-0.966,2.225-1.834,3.422-2.627
		c1.145-0.759,2.368-1.41,3.598-2.026c1.1-0.55,2.236-1.044,3.393-1.459c1.114-0.399,2.268-0.7,3.42-0.984
		c3.334-0.821,6.722-1.13,10.149-0.911c1.008,0.065,2.012,0.237,3.01,0.406c1.257,0.213,2.518,0.425,3.756,0.728
		c0.949,0.232,1.877,0.571,2.791,0.923c1.025,0.394,2.029,0.843,3.033,1.289c1.589,0.705,3.054,1.628,4.474,2.623
		c1.849,1.296,3.532,2.789,5.026,4.478c0.805,0.909,1.521,1.903,2.218,2.9c0.603,0.863,1.136,1.776,1.67,2.685
		c0.266,0.454,0.491,0.937,0.684,1.427c0.321,0.816,0.647,1.636,0.888,2.478c0.395,1.381,0.751,2.774,1.068,4.175
		c0.129,0.568,0.114,1.168,0.167,1.753c0.029,0.321,0.061,0.641,0.097,0.961c0.044,0.389-0.113,0.602-0.504,0.604
		c-2.473,0.007-4.945,0.009-7.418-0.002c-0.465-0.002-0.596-0.219-0.542-0.694c0.023-0.197-0.011-0.405-0.04-0.604
		c-0.221-1.48-0.384-2.977-0.931-4.384c-0.302-0.777-0.641-1.544-1.031-2.281c-0.437-0.827-0.926-1.63-1.435-2.416
		c-0.843-1.302-1.901-2.424-3.035-3.475c-1.44-1.335-3.024-2.478-4.768-3.371c-1.052-0.539-2.162-0.977-3.275-1.38
		c-0.99-0.358-2.004-0.69-3.036-0.883c-2.592-0.486-5.192-0.723-7.844-0.357c-1.404,0.194-2.776,0.488-4.149,0.8
		c-0.596,0.135-1.178,0.36-1.747,0.59c-3.653,1.475-6.859,3.58-9.39,6.646c-1.031,1.249-1.928,2.575-2.641,4.036
		c-0.524,1.073-0.883,2.19-1.256,3.319c-0.551,1.671-0.654,3.372-0.656,5.09c-0.012,9.523-0.015,19.045,0.017,28.568
		c0.005,1.402,0.077,2.818,0.601,4.167c0.339,0.873,0.52,1.809,0.888,2.667c0.391,0.911,0.867,1.797,1.398,2.636
		c1.05,1.658,2.294,3.173,3.796,4.44c0.985,0.831,2.038,1.587,3.107,2.308c0.775,0.523,1.61,0.967,2.45,1.383
		c0.707,0.349,1.444,0.654,2.195,0.892c1.201,0.381,2.405,0.819,3.642,0.999c1.71,0.249,3.451,0.358,5.181,0.381
		c1.242,0.016,2.506-0.11,3.726-0.349c1.435-0.282,2.87-0.654,4.237-1.167c2.105-0.789,4.081-1.852,5.87-3.245
		c1.315-1.023,2.549-2.127,3.605-3.416c0.921-1.123,1.742-2.31,2.417-3.609c0.633-1.22,1.13-2.481,1.516-3.792
		c0.116-0.393,0.217-0.796,0.269-1.202c0.117-0.916,0.197-1.836,0.296-2.754c0.032-0.3,0.214-0.438,0.507-0.438
		c0.53,0,1.06,0.004,1.589,0.003c1.913-0.003,3.827-0.006,5.74-0.01c0.594-0.001,0.703,0.158,0.615,0.76
		c-0.068,0.464-0.044,0.941-0.106,1.406c-0.093,0.696-0.222,1.388-0.344,2.08c-0.077,0.434-0.133,0.876-0.26,1.296
		c-0.345,1.133-0.704,2.263-1.097,3.38c-0.213,0.606-0.47,1.204-0.775,1.769c-0.591,1.092-1.212,2.17-1.856,3.231
		c-0.919,1.515-2.053,2.872-3.324,4.095c-1.129,1.086-2.32,2.119-3.562,3.074c-1.032,0.793-2.151,1.484-3.281,2.136
		c-0.937,0.541-1.939,0.969-2.922,1.426c-0.504,0.234-1.03,0.418-1.543,0.634c-1.699,0.713-3.485,1.131-5.275,1.526
		c-0.729,0.161-1.485,0.201-2.221,0.336c-2.555,0.469-5.129,0.517-7.691,0.183c-2.007-0.262-4.011-0.621-5.974-1.105
		c-1.386-0.341-2.725-0.912-4.044-1.475c-1.223-0.522-2.448-1.082-3.574-1.782c-1.555-0.967-3.103-1.983-4.498-3.162
		c-1.396-1.18-2.705-2.501-3.859-3.917c-1.076-1.32-1.951-2.816-2.817-4.292c-0.922-1.571-1.541-3.276-2.058-5.032
		c-0.699-2.377-1.052-4.79-1.066-7.252C6.374,54.783,6.392,50.368,6.392,45.952z"/>
	<path stroke="#000000" stroke-width="2" stroke-miterlimit="10" d="M53.618,46.703c0,3.959-0.016,7.918,0.008,11.877
		c0.009,1.463-0.193,2.877-0.627,4.271c-0.386,1.24-0.969,2.373-1.67,3.461c-0.891,1.383-2.001,2.557-3.292,3.56
		c-1.099,0.855-2.299,1.535-3.569,2.121c-1.736,0.801-3.567,1.234-5.435,1.423c-2.088,0.211-4.18,0.077-6.234-0.468
		c-1.685-0.447-3.269-1.1-4.768-1.992c-1.522-0.906-2.833-2.052-3.96-3.399c-0.901-1.075-1.679-2.249-2.139-3.589
		c-0.347-1.011-0.649-2.04-0.929-3.072c-0.118-0.434-0.129-0.898-0.187-1.348c-0.045-0.348,0.121-0.461,0.455-0.455
		c0.703,0.012,1.407,0.004,2.11-0.006c1.489-0.021,2.978-0.049,4.467-0.073c0.518-0.008,0.641,0.115,0.71,0.637
		c0.189,1.418,0.824,2.633,1.725,3.723c0.73,0.883,1.635,1.554,2.622,2.111c0.981,0.554,2.071,0.782,3.17,0.988
		c1.057,0.198,2.077,0.047,3.112-0.152c1.921-0.37,3.524-1.297,4.831-2.725c1.351-1.477,2.049-3.219,2.045-5.244
		c-0.011-5.959,0-11.918,0.001-17.877c0-0.866-0.239-1.114-1.103-1.115c-2.276-0.003-4.552,0.002-6.828,0.004
		c-0.466,0-0.529-0.071-0.527-0.521c0.007-1.903,0.012-3.807,0.01-5.71c-0.001-0.69,0.082-0.77,0.753-0.714
		c0.301,0.025,0.606,0.011,0.909,0.011c4.276,0,8.552,0.001,12.829-0.001c0.289,0,0.578-0.02,0.866-0.04
		c0.468-0.034,0.657,0.142,0.656,0.619c-0.004,2.276-0.008,4.552-0.01,6.827C53.617,42.123,53.618,44.413,53.618,46.703z"/>
	<path stroke="#000000" stroke-width="2" stroke-miterlimit="10" d="M32.811,35.617c0.046,2.213-0.838,3.679-2.456,4.724
		c-2.004,1.295-4.165,1.321-6.295,0.487c-1.273-0.499-2.271-1.431-2.864-2.771c-0.345-0.781-0.586-1.534-0.528-2.381
		c0.103-1.503,0.735-2.756,1.878-3.718c1.956-1.646,4.212-1.905,6.559-1.13c1.293,0.427,2.34,1.283,3.057,2.516
		C32.627,34.142,32.848,34.96,32.811,35.617z"/>
</g>
<g>
	<path fill="#F7941E" d="M143.315,42.658v5.434h-20.392v-5.434H143.315z M141.318,54.979l2.892,5.418h-12.161
		c-2.514,0-4.667-0.895-6.456-2.685c-1.779-1.79-2.669-3.942-2.669-6.457v-4.506l5.433,0.064v4.442c0,1.012,0.362,1.886,1.087,2.621
		c0.724,0.735,1.592,1.103,2.604,1.103H141.318z"/>
	<path fill="#F7941E" d="M146.711,61.897h-14.662c-2.915,0-5.444-1.052-7.517-3.125c-2.063-2.076-3.108-4.604-3.108-7.518V41.158
		h23.392v8.434h-14.958v1.663c0,0.617,0.208,1.115,0.654,1.566c0.442,0.45,0.93,0.658,1.537,0.658h10.169L146.711,61.897z
		 M124.424,49.592v1.663c0,2.122,0.73,3.888,2.232,5.399c1.508,1.509,3.272,2.243,5.393,2.243h9.66l-1.29-2.418h-8.37
		c-1.404,0-2.675-0.536-3.674-1.552c-1.006-1.019-1.518-2.255-1.518-3.673v-1.663H124.424z M129.857,46.592h11.958v-2.434h-17.392
		v1.109l5.434,0.063V46.592z"/>
</g>
<g>
	<g>
		<path fill="#F7941E" d="M149.309,31.503h5.434v7.655c0,0.959,0.352,1.784,1.054,2.477c0.693,0.693,1.519,1.039,2.477,1.039h1.167
			v5.433h-1.167c-2.419,0-4.501-0.847-6.248-2.541c-1.726,1.694-3.804,2.541-6.232,2.541h-0.991v-5.433h0.991
			c0.959,0,1.784-0.346,2.476-1.039c0.693-0.693,1.039-1.519,1.039-2.477V31.503z M154.499,60.437h-5.402V55.02h5.402V60.437z"/>
	</g>
	<g>
		<path fill="#F7941E" d="M155.999,61.937h-8.401V53.52h8.401V61.937z M150.598,58.937h2.401V56.52h-2.401V58.937z M160.941,49.607
			h-2.667c-2.343,0-4.437-0.692-6.244-2.063c-1.794,1.37-3.886,2.063-6.236,2.063h-2.491v-8.434h2.491
			c0.557,0,1.007-0.19,1.416-0.599c0.408-0.409,0.599-0.859,0.599-1.417v-9.155h8.435v9.155c0,0.553,0.192,1,0.606,1.409
			c0.417,0.416,0.867,0.607,1.425,0.607h2.667V49.607z M152.019,43.47l1.051,1.019c1.39,1.347,2.986,2.041,4.872,2.113v-2.438
			c-1.228-0.075-2.304-0.567-3.205-1.468c-0.975-0.961-1.493-2.187-1.493-3.538v-6.155h-2.435v6.155
			c0,1.348-0.511,2.571-1.478,3.538c-0.843,0.844-1.882,1.341-3.028,1.454v2.444c1.813-0.107,3.347-0.796,4.672-2.097L152.019,43.47
			z"/>
	</g>
</g>
<g>
	<path fill="#F7941E" d="M175.049,55.02l-0.048,5.433h-13.999l2.397-5.433H175.049z M163.197,31.503h5.433v7.655
		c0,0.959,0.352,1.784,1.055,2.477c0.692,0.693,1.518,1.039,2.477,1.039h1.166v5.433h-1.166c-2.419,0-4.501-0.847-6.248-2.541
		c-1.726,1.694-3.804,2.541-6.233,2.541h-0.991v-5.433h0.991c0.959,0,1.784-0.346,2.477-1.039c0.692-0.693,1.039-1.519,1.039-2.477
		V31.503z"/>
	<path fill="#F7941E" d="M176.489,61.953h-17.787l3.72-8.434h14.142L176.489,61.953z M163.304,58.953h10.211l0.021-2.434h-9.159
		L163.304,58.953z M174.828,49.607h-2.666c-2.342,0-4.437-0.693-6.243-2.063c-1.795,1.369-3.887,2.063-6.238,2.063h-2.491v-8.434
		h2.491c0.558,0,1.008-0.191,1.417-0.6c0.409-0.409,0.6-0.859,0.6-1.416v-9.155h8.433v9.155c0,0.553,0.193,1,0.607,1.408
		c0.418,0.418,0.867,0.608,1.425,0.608h2.666V49.607z M165.908,43.471l1.05,1.018c1.389,1.347,2.985,2.04,4.87,2.112v-2.438
		c-1.217-0.078-2.318-0.582-3.204-1.469c-0.974-0.958-1.494-2.184-1.494-3.537v-6.155h-2.433v6.155c0,1.347-0.511,2.57-1.479,3.538
		c-0.857,0.857-1.875,1.345-3.029,1.455v2.443c1.814-0.107,3.348-0.796,4.674-2.098L165.908,43.471z"/>
</g>
<g>
	<path fill="#F7941E" d="M172.194,48.107v-5.433h14.447c0.959,0,1.79-0.346,2.493-1.039c0.692-0.693,1.038-1.519,1.038-2.477
		c0-0.969-0.346-1.801-1.038-2.493c-0.693-0.692-1.524-1.038-2.493-1.038h-12.434l2.334-5.434h10.1c2.461,0,4.57,0.879,6.329,2.637
		c1.758,1.758,2.637,3.868,2.637,6.329s-0.879,4.565-2.637,6.312c-1.758,1.758-3.868,2.637-6.329,2.637H172.194z M187.279,60.437
		h-5.402V55.02h5.402V60.437z"/>
	<path fill="#F7941E" d="M188.778,61.937h-8.401V53.52h8.401V61.937z M183.377,58.937h2.401V56.52h-2.401V58.937z M186.641,49.607
		h-15.946v-8.434h15.946c0.563,0,1.021-0.193,1.442-0.608c0.399-0.4,0.59-0.851,0.59-1.408c0-0.568-0.19-1.023-0.6-1.434
		c-0.408-0.407-0.864-0.598-1.433-0.598h-14.709l3.621-8.434h11.088c2.86,0,5.347,1.035,7.39,3.076
		c2.041,2.042,3.076,4.528,3.076,7.39c0,2.864-1.036,5.346-3.079,7.376C191.988,48.572,189.502,49.607,186.641,49.607z
		 M173.694,46.607h12.946c2.065,0,3.789-0.719,5.269-2.198c1.479-1.47,2.197-3.187,2.197-5.251c0-2.066-0.719-3.789-2.197-5.268
		c-1.479-1.479-3.203-2.197-5.269-2.197h-9.111l-1.045,2.434h10.156c1.376,0,2.572,0.497,3.554,1.476
		c0.968,0.97,1.479,2.199,1.479,3.555c0,1.347-0.511,2.569-1.477,3.537c-1.001,0.984-2.193,1.479-3.556,1.479h-12.946V46.607z"/>
</g>
<g>
	<g>
		<g>
			<path d="M85.747,31.958c-1.053,0-1.96-0.376-2.724-1.13c-0.687-0.675-1.08-1.472-1.179-2.392h-0.017v-8.073h-5.631v14.202
				c0,1.053-0.382,1.955-1.147,2.708s-1.673,1.13-2.724,1.13h-2.724l-2.492,5.648h5.216c2.613,0,4.851-0.925,6.711-2.775
				c1.24-1.24,2.065-2.647,2.476-4.219l0.016,0.049c0.044-0.143,0.083-0.293,0.117-0.448c1.318,0.63,2.685,0.946,4.103,0.946h0.498
				v-5.648H85.747z"/>
		</g>
		<g>
			<path d="M85.747,30.298c-0.613,0-1.108-0.207-1.561-0.654c-0.414-0.407-0.634-0.847-0.692-1.386l-0.008-9.555h-8.95v15.862
				c0,0.611-0.201,1.082-0.652,1.526c-0.451,0.445-0.947,0.652-1.559,0.652h-3.806l-3.956,8.967h7.762
				c3.056,0,5.707-1.096,7.884-3.261c0.35-0.349,0.672-0.712,0.967-1.088l1.557-2.518c0.044,0.013,0.089,0.021,0.133,0.033
				c0.941,0.256,1.904,0.389,2.881,0.389h2.158v-8.967H85.747z"/>
			<path d="M80.521,34.282l-0.047-0.023l-0.287,1.305l-0.28,1.074c-0.337,1.293-1.006,2.426-2.04,3.461
				c-1.551,1.542-3.363,2.292-5.541,2.292h-2.67l1.027-2.329h1.643c1.477,0,2.822-0.556,3.889-1.607
				c1.074-1.058,1.641-2.403,1.641-3.89V22.023h2.312v6.414l0.017,1.66h0.376c0.181,0.448,0.422,0.87,0.722,1.264L80.521,34.282z"/>
			<path d="M84.586,35.86c-0.645-0.099-1.275-0.281-1.901-0.55l-1.221-3.723c0.122,0.145,0.254,0.287,0.393,0.424
				c0.792,0.782,1.707,1.281,2.728,1.492V35.86z"/>
		</g>
	</g>
	<g>
		<g>
			<path d="M100.498,31.958c-0.997,0-1.855-0.36-2.575-1.079c-0.731-0.72-1.096-1.579-1.096-2.575v-7.957h-5.648v7.957
				c0,0.997-0.361,1.855-1.08,2.575c-0.72,0.72-1.578,1.079-2.574,1.079h-1.031v5.648h1.031c2.525,0,4.684-0.88,6.478-2.642
				c1.817,1.762,3.981,2.642,6.496,2.642h1.212v-5.648H100.498z"/>
		</g>
		<g>
			<path d="M103.369,39.265h-2.872c-2.431,0-4.608-0.711-6.49-2.118c-1.868,1.407-4.042,2.118-6.483,2.118h-2.69v-8.967h2.69
				c0.558,0,0.99-0.183,1.401-0.594c0.41-0.411,0.594-0.843,0.594-1.401v-9.617h8.967v9.617c0,0.554,0.185,0.984,0.601,1.393
				c0.419,0.419,0.852,0.602,1.41,0.602h2.872V39.265z"/>
			<path d="M93.995,32.646l1.162,1.127c1.399,1.356,3.004,2.066,4.893,2.162V33.6c-1.25-0.102-2.384-0.631-3.301-1.547
				c-1.032-1.018-1.582-2.317-1.582-3.749v-6.298h-2.329v6.298c0,1.427-0.541,2.723-1.566,3.748
				c-0.873,0.873-1.942,1.395-3.12,1.531v2.343c1.815-0.13,3.353-0.835,4.686-2.144L93.995,32.646z"/>
		</g>
	</g>
	<g>
		<g>
			<polygon points="98.553,8.474 90.114,8.474 87.622,14.122 98.553,14.122 			"/>
		</g>
		<g>
			<polygon points="100.212,15.782 85.075,15.782 89.033,6.815 100.212,6.815 			"/>
			<polygon points="90.168,12.462 96.893,12.462 96.893,10.134 91.196,10.134 			"/>
		</g>
	</g>
	<g>
		<path d="M106.361,20.346h5.648v7.957c0,0.997,0.365,1.855,1.096,2.575c0.72,0.72,1.578,1.079,2.575,1.079h1.212v5.648h-1.212
			c-2.514,0-4.679-0.88-6.496-2.642c-1.794,1.762-3.953,2.642-6.478,2.642h-1.031v-5.648h1.031c0.997,0,1.854-0.36,2.574-1.079
			c0.72-0.72,1.08-1.579,1.08-2.575V20.346z"/>
		<rect x="106.46" y="8.474" width="5.616" height="5.648"/>
		<path d="M118.552,39.265h-2.872c-2.431,0-4.608-0.711-6.49-2.118c-1.868,1.407-4.042,2.118-6.483,2.118h-2.69v-8.967h2.69
			c0.558,0,0.99-0.183,1.401-0.594c0.41-0.41,0.594-0.843,0.594-1.401v-9.617h8.967v9.617c0,0.554,0.185,0.984,0.601,1.393
			c0.419,0.419,0.852,0.602,1.41,0.602h2.872V39.265z"/>
		<path d="M109.177,32.645l1.162,1.127c1.399,1.357,3.004,2.067,4.893,2.162v-2.335c-1.25-0.102-2.384-0.631-3.301-1.547
			c-1.032-1.017-1.582-2.317-1.582-3.749v-6.298h-2.329v6.298c0,1.427-0.541,2.723-1.566,3.748c-0.873,0.872-1.942,1.394-3.12,1.53
			v2.343c1.815-0.13,3.353-0.835,4.686-2.144L109.177,32.645z"/>
		<rect x="104.801" y="6.814" width="8.935" height="8.967"/>
		<rect x="108.12" y="10.133" width="2.296" height="2.329"/>
	</g>
	<g>
		<rect x="116.377" y="31.908" width="26.465" height="5.632"/>
		<rect x="114.717" y="30.248" width="29.784" height="8.951"/>
		<rect x="118.036" y="33.567" width="23.146" height="2.313"/>
	</g>
</g>
<g>
	<path fill="#F7941E" d="M73.875,74.716l-0.588,2.419h5.283l3.4-13.6c1.116,0.183,1.988,0.706,2.615,1.569
		c0.619,0.855,0.806,1.831,0.562,2.929L82.649,78.26c-0.706,1.944-1.97,2.916-3.792,2.916H67.911
		c0.445-1.839,0.841-3.474,1.19-4.904c0.139-0.549,0.266-1.068,0.379-1.556H73.875z"/>
	<path fill="#F7941E" d="M85.211,81.177l3.295-13.365h4.315l-3.243,13.365H85.211z M89.592,63.522h4.302l-0.811,3.139h-4.302
		L89.592,63.522z"/>
	<path fill="#F7941E" d="M93.475,77.541h4.276h2.105h0.013c1.046-0.035,1.892-0.327,2.537-0.876
		c0.636-0.514,1.059-1.142,1.268-1.883c0.593-2.031-0.009-3.06-1.805-3.086H99.87h-0.667l-1.255,4.616h-4.172l3.165-12.789h4.172
		l-1.007,4.42l3.034,0.013c1.264,0.078,2.22,0.362,2.871,0.85c0.649,0.489,1.139,1.151,1.471,1.988
		c0.723,1.814,0.567,3.867-0.471,6.159c-1.395,2.624-3.67,4.032-6.826,4.224h-7.585L93.475,77.541z"/>
	<path fill="#F7941E" d="M108.892,81.177l3.295-13.365h4.315l-3.243,13.365H108.892z M113.273,63.522h4.302l-0.811,3.139h-4.302
		L113.273,63.522z"/>
	<path d="M122.854,68.471c0.602-1.678,1.685-2.516,3.25-2.516h10.471l-0.846,3.486h-9.027c-0.083,0-0.169,0.034-0.259,0.101
		c-0.09,0.068-0.154,0.158-0.192,0.271l-1.76,7.346c-0.022,0.143,0.012,0.267,0.101,0.372c0.09,0.105,0.207,0.158,0.35,0.158
		l8.823,0.011c-0.256,1.061-0.538,2.219-0.846,3.475h-8.959c-1.166-0.045-2.038-0.472-2.618-1.281
		c-0.58-0.809-0.783-1.683-0.609-2.624L122.854,68.471z"/>
	<path d="M140.23,81.132c-1.091-0.068-1.917-0.312-2.477-0.733c-0.56-0.422-0.983-0.993-1.27-1.715
		c-0.624-1.557-0.489-3.329,0.406-5.315c1.204-2.264,3.167-3.479,5.89-3.645h3.735c1.151,0.075,1.909,0.412,2.274,1.01
		c0.365,0.598,0.453,1.27,0.265,2.014l-0.023,0.113l-1.004,4.107h-6.703c-0.368-0.052-0.558-0.327-0.57-0.824
		s0.145-0.996,0.468-1.501c0.323-0.504,0.794-0.782,1.411-0.835h1.32h1.196l0.237-0.948h-0.045h-2.28h-0.011
		c-0.903,0.03-1.633,0.282-2.189,0.756c-0.557,0.444-0.922,0.985-1.094,1.625c-0.437,1.723,0.083,2.61,1.557,2.662h1.727h4.762
		l-0.79,3.272L140.23,81.132z"/>
	<path d="M160.427,81.177h-3.701l1.907-7.583c0.022-0.196-0.019-0.365-0.124-0.507c-0.113-0.151-0.275-0.226-0.485-0.226h-2.753
		l-2.031,8.316h-3.701l2.798-11.464h4.525v-0.012h2.539c1.008,0,1.805,0.391,2.392,1.174c0.594,0.775,0.775,1.681,0.541,2.719
		L160.427,81.177z"/>
	<path d="M164.06,77.272l2.787-11.328h3.656c-0.617,2.415-0.937,3.664-0.959,3.746h2.697l-0.813,3.328h-2.685
		c-0.196,0.805-0.358,1.472-0.485,2.003c-0.128,0.53-0.244,1.012-0.35,1.444c-0.105,0.433-0.169,0.701-0.191,0.807
		c-0.023,0.188,0.022,0.358,0.135,0.508c0.113,0.151,0.271,0.226,0.474,0.226h1.896l-0.767,3.17h-2.46
		c-1.008,0-1.801-0.391-2.381-1.173C164.026,79.221,163.842,78.311,164.06,77.272z"/>
	<path d="M176.99,81.132c-1.091-0.068-1.917-0.312-2.477-0.733c-0.56-0.422-0.983-0.993-1.27-1.715
		c-0.624-1.557-0.489-3.329,0.406-5.315c1.204-2.264,3.167-3.479,5.89-3.645h3.735c1.151,0.075,1.909,0.412,2.274,1.01
		c0.365,0.598,0.453,1.27,0.265,2.014l-0.023,0.113l-1.004,4.107h-6.703c-0.368-0.052-0.558-0.327-0.57-0.824
		s0.145-0.996,0.468-1.501c0.323-0.504,0.794-0.782,1.411-0.835h1.32h1.196l0.237-0.948h-0.045h-2.28h-0.011
		c-0.903,0.03-1.633,0.282-2.189,0.756c-0.557,0.444-0.922,0.985-1.094,1.625c-0.437,1.723,0.083,2.61,1.557,2.662h1.727h4.762
		l-0.79,3.272L176.99,81.132z"/>
	<path d="M191.906,69.701h3.644l-0.835,3.272h-1.986c-0.225,0-0.433,0.079-0.62,0.237c-0.18,0.158-0.301,0.357-0.361,0.598
		l-1.794,7.368h-3.656l1.997-8.304C188.814,71.021,190.018,69.965,191.906,69.701z"/>
</g>
</svg>
